<svg width="209" height="53" viewBox="0 0 209 53" fill="none" xmlns="http://www.w3.org/2000/svg">
<path d="M4.41626 0.435059H199.975V52.4351H100.188H66.8008V26.4351H0.402344V13.4351V6.93506V5.31006V4.44287H2.41626V2.44855H4.41626V0.435059Z" fill="white"/>
<path d="M204.388 0.435059H114.178V26.4351H208.402V13.4351V6.93506V5.31006V4.44287H206.388V2.44855H204.388V0.435059Z" fill="white"/>
<path d="M4.41626 52.4351H94.6264V26.4351H0.402344V39.4351V45.9351V47.5601V48.4272H2.41626V50.4216H4.41626V52.4351Z" fill="white"/>
<path d="M204.388 52.4351H114.178V26.4351H208.402V39.4351V45.9351V47.5601V48.4272H206.388V50.4216H204.388V52.4351Z" fill="white"/>
<path opacity="0.5" d="M4.41626 52.4351H94.6264V26.4351H0.402344V39.4351V45.9351V47.5601V48.4272H2.41626V50.4216H4.41626V52.4351Z" fill="#D9D9D9"/>
<path opacity="0.5" d="M4.41626 52.4351H94.6264V26.4351H0.402344V39.4351V45.9351V47.5601V48.4272H2.41626V50.4216H4.41626V52.4351Z" fill="#D9D9D9"/>
<path d="M4.41626 52.4351H94.6264V26.4351H0.402344V39.4351V45.9351V47.5601V48.4272H2.41626V50.4216H4.41626V52.4351Z" fill="white"/>
</svg>
